<svg width="80" height="80" viewBox="0 0 80 80" fill="none" xmlns="http://www.w3.org/2000/svg">
<circle cx="40" cy="40" r="40" fill="#FB6868"/>
<g clip-path="url(#clip0)">
<path d="M42.386 39.323H32.478C32.264 39.323 32.058 39.238 31.907 39.086L27.337 34.516C27.022 34.201 27.022 33.689 27.337 33.374C27.653 33.059 28.163 33.059 28.479 33.374L32.812 37.707H40.436L32.076 29.347C31.76 29.032 31.76 28.521 32.076 28.205C32.391 27.889 32.902 27.889 33.218 28.205L42.956 37.943C43.187 38.174 43.256 38.521 43.131 38.823C43.007 39.127 42.713 39.323 42.386 39.323Z" fill="white"/>
<path d="M27.131 34.809C25.439 34.809 23.849 34.15 22.652 32.954C20.978 31.28 20.381 28.833 21.094 26.568C21.179 26.299 21.398 26.093 21.672 26.026C21.946 25.96 22.236 26.041 22.435 26.24L24.805 28.61L27.159 28.243L27.526 25.89L25.306 23.67C25.099 23.462 25.02 23.159 25.101 22.877C25.182 22.595 25.409 22.379 25.695 22.313C27.845 21.814 30.056 22.444 31.61 23.998C32.806 25.194 33.465 26.785 33.465 28.477C33.465 30.169 32.806 31.759 31.61 32.956C30.413 34.151 28.823 34.809 27.131 34.809ZM22.414 28.502C22.419 29.727 22.9 30.917 23.795 31.812C24.686 32.703 25.871 33.194 27.132 33.194C28.392 33.194 29.577 32.703 30.469 31.812C31.36 30.921 31.851 29.736 31.851 28.475C31.851 27.215 31.36 26.029 30.469 25.138C29.712 24.381 28.744 23.918 27.716 23.793L28.959 25.036C29.141 25.218 29.225 25.477 29.186 25.731L28.665 29.073C28.611 29.42 28.339 29.693 27.991 29.747L24.649 30.268C24.393 30.308 24.136 30.223 23.954 30.041L22.414 28.502Z" fill="white"/>
<path d="M59.377 61.127H19.808C19.361 61.127 19 60.766 19 60.32V51.168C19 50.722 19.361 50.36 19.808 50.36H59.378C59.824 50.36 60.186 50.721 60.186 51.168V60.32C60.185 60.766 59.824 61.127 59.377 61.127ZM20.615 59.512H58.57V51.975H20.615V59.512Z" fill="white"/>
<path d="M59.377 48.476H19.808C19.361 48.476 19 48.114 19 47.668V38.516C19 38.07 19.361 37.708 19.808 37.708H59.378C59.824 37.708 60.186 38.069 60.186 38.516V47.668C60.185 48.114 59.824 48.476 59.377 48.476ZM20.615 46.861H58.57V39.324H20.615V46.861Z" fill="white"/>
<path d="M31.584 51.975H22.364C21.918 51.975 21.557 51.614 21.557 51.167V47.668C21.557 47.222 21.918 46.861 22.364 46.861H31.584C32.03 46.861 32.391 47.222 32.391 47.668V51.167C32.392 51.613 32.031 51.975 31.584 51.975ZM23.172 50.36H30.776V48.476H23.172V50.36Z" fill="white"/>
<path d="M56.82 51.975H47.6C47.154 51.975 46.792 51.614 46.792 51.167V47.668C46.792 47.222 47.153 46.861 47.6 46.861H56.82C57.266 46.861 57.627 47.222 57.627 47.668V51.167C57.628 51.613 57.266 51.975 56.82 51.975ZM48.408 50.36H56.012V48.476H48.408V50.36Z" fill="white"/>
<path d="M57.139 31.469H41.649C40.568 31.469 39.689 30.59 39.689 29.509V26.5C39.689 25.924 39.941 25.379 40.381 25.005L43.405 22.44C43.759 22.14 44.209 21.975 44.673 21.975H57.139C58.22 21.975 59.099 22.854 59.099 23.935V29.51C59.099 30.59 58.22 31.469 57.139 31.469ZM44.673 23.59C44.592 23.59 44.512 23.619 44.45 23.672L41.426 26.238C41.349 26.303 41.304 26.399 41.304 26.501V29.51C41.304 29.7 41.459 29.855 41.649 29.855H57.139C57.329 29.855 57.484 29.7 57.484 29.51V23.935C57.484 23.745 57.329 23.59 57.139 23.59H44.673Z" fill="white"/>
<path d="M52.851 39.324C52.405 39.324 52.043 38.963 52.043 38.516V31.469H47.129V38.516C47.129 38.962 46.768 39.324 46.321 39.324C45.874 39.324 45.513 38.963 45.513 38.516V30.662C45.513 30.216 45.874 29.855 46.321 29.855H52.85C53.296 29.855 53.658 30.216 53.658 30.662V38.516C53.658 38.962 53.297 39.324 52.851 39.324Z" fill="white"/>
<path d="M52.851 23.59H46.322C45.876 23.59 45.514 23.229 45.514 22.782V20.96C45.514 19.879 46.393 19 47.474 19H51.699C52.78 19 53.659 19.879 53.659 20.96V22.783C53.658 23.229 53.297 23.59 52.851 23.59ZM47.129 21.975H52.043V20.96C52.043 20.77 51.888 20.615 51.698 20.615H47.473C47.283 20.615 47.128 20.77 47.128 20.96V21.975H47.129Z" fill="white"/>
<path d="M58.291 28.86H47.227C46.781 28.86 46.419 28.499 46.419 28.052C46.419 27.605 46.78 27.245 47.227 27.245H58.291C58.737 27.245 59.099 27.606 59.099 28.052C59.099 28.498 58.737 28.86 58.291 28.86Z" fill="white"/>
<path d="M26.975 43.899H23.442C22.996 43.899 22.634 43.538 22.634 43.091C22.634 42.644 22.996 42.284 23.442 42.284H26.975C27.421 42.284 27.782 42.645 27.782 43.091C27.782 43.537 27.421 43.899 26.975 43.899Z" fill="white"/>
<path d="M26.975 56.551H23.442C22.996 56.551 22.634 56.19 22.634 55.743C22.634 55.297 22.996 54.936 23.442 54.936H26.975C27.421 54.936 27.782 55.297 27.782 55.743C27.782 56.19 27.421 56.551 26.975 56.551Z" fill="white"/>
<path d="M55.744 43.899H52.21C51.764 43.899 51.403 43.538 51.403 43.091C51.403 42.644 51.764 42.284 52.21 42.284H55.743C56.189 42.284 56.551 42.645 56.551 43.091C56.551 43.537 56.19 43.899 55.744 43.899Z" fill="white"/>
<path d="M55.744 56.551H52.21C51.764 56.551 51.403 56.19 51.403 55.743C51.403 55.297 51.764 54.936 52.21 54.936H55.743C56.189 54.936 56.551 55.297 56.551 55.743C56.551 56.19 56.19 56.551 55.744 56.551Z" fill="white"/>
</g>
<defs>
<clipPath id="clip0">
<rect width="41.185" height="42.127" fill="white" transform="translate(19 19)"/>
</clipPath>
</defs>
</svg>
