<svg width="80" height="80" viewBox="0 0 80 80" fill="none" xmlns="http://www.w3.org/2000/svg">
<circle cx="40" cy="40" r="40" fill="#FFCC18"/>
<g clip-path="url(#clip0)">
<path d="M33.885 61.738C33.774 61.738 33.663 61.735 33.551 61.727C30.945 61.558 28.904 59.314 28.904 56.618V42.156L24.132 38.147C23.025 37.217 22.391 35.855 22.391 34.41V31.618C22.391 31.172 22.752 30.81 23.198 30.81H44.563C45.009 30.81 45.371 31.172 45.371 31.618V34.41C45.371 35.856 44.736 37.218 43.629 38.147L38.857 42.156V56.761C38.857 58.131 38.283 59.455 37.283 60.392C36.35 61.266 35.154 61.738 33.885 61.738ZM24.005 32.425V34.409C24.005 35.376 24.43 36.288 25.17 36.91L30.23 41.161C30.413 41.315 30.518 41.541 30.518 41.779V56.618C30.518 58.465 31.895 60.001 33.654 60.115C34.593 60.181 35.493 59.856 36.177 59.214C36.863 58.571 37.24 57.7 37.24 56.761V41.78C37.24 41.541 37.345 41.315 37.528 41.162L42.588 36.911C43.329 36.289 43.754 35.377 43.754 34.41V32.426H24.005V32.425Z" fill="white"/>
<path d="M44.563 32.425H23.197C22.751 32.425 22.39 32.063 22.39 31.618V28.903C22.39 25.803 22.05 23.686 21.382 20.635L21.019 18.98C20.967 18.741 21.025 18.491 21.179 18.301C21.332 18.111 21.563 18 21.808 18H27.714C28.04 18 28.334 18.196 28.459 18.497L29.854 21.845L31.129 18.519C31.248 18.206 31.548 18 31.883 18H44.563C45.009 18 45.371 18.361 45.371 18.808V31.618C45.37 32.064 45.009 32.425 44.563 32.425ZM24.005 30.81H43.755V19.615H32.438L30.639 24.308C30.521 24.616 30.227 24.822 29.897 24.826C29.547 24.816 29.267 24.634 29.14 24.329L27.175 19.615H22.812L22.96 20.288C23.653 23.453 24.006 25.654 24.006 28.902V30.81H24.005Z" fill="white"/>
<path d="M38.049 42.587H29.711C29.265 42.587 28.903 42.225 28.903 41.779C28.903 41.333 29.264 40.971 29.711 40.971H38.049C38.495 40.971 38.857 41.333 38.857 41.779C38.856 42.226 38.495 42.587 38.049 42.587Z" fill="white"/>
<path d="M36.051 36.4H23.378C22.932 36.4 22.57 36.038 22.57 35.593C22.57 35.147 22.931 34.785 23.378 34.785H36.051C36.497 34.785 36.859 35.147 36.859 35.593C36.859 36.038 36.497 36.4 36.051 36.4Z" fill="white"/>
<path d="M44.382 36.4H39.612C39.166 36.4 38.805 36.038 38.805 35.593C38.805 35.147 39.166 34.785 39.612 34.785H44.382C44.828 34.785 45.19 35.147 45.19 35.593C45.19 36.038 44.828 36.4 44.382 36.4Z" fill="white"/>
<path d="M53.818 36.92C53.646 36.92 53.476 36.913 53.307 36.899C51.375 36.742 49.686 35.6 48.786 33.843C47.84 31.996 47.91 29.84 48.974 28.075L53.126 21.191C53.272 20.949 53.535 20.8 53.818 20.8C54.101 20.8 54.363 20.948 54.51 21.191L58.662 28.075C59.726 29.839 59.796 31.996 58.85 33.843C57.95 35.6 56.261 36.743 54.331 36.899C54.16 36.913 53.99 36.92 53.818 36.92ZM53.818 23.172L50.358 28.909C49.585 30.191 49.535 31.761 50.224 33.107C50.877 34.381 52.047 35.176 53.436 35.289C53.685 35.309 53.949 35.309 54.202 35.289C55.588 35.176 56.759 34.38 57.411 33.107C58.101 31.761 58.051 30.191 57.277 28.909L53.818 23.172Z" fill="white"/>
<path d="M58.701 61.738H23.197C22.751 61.738 22.39 61.376 22.39 60.93C22.39 60.484 22.751 60.123 23.197 60.123H58.7C59.146 60.123 59.508 60.485 59.508 60.93C59.508 61.375 59.147 61.738 58.701 61.738Z" fill="white"/>
<path d="M38.049 32.425C37.603 32.425 37.241 32.063 37.241 31.618V25.213C37.241 24.767 37.602 24.405 38.049 24.405C38.496 24.405 38.857 24.767 38.857 25.213V31.618C38.856 32.064 38.495 32.425 38.049 32.425Z" fill="white"/>
<path d="M29.885 32.425C29.439 32.425 29.077 32.063 29.077 31.618V24.019C29.077 23.573 29.438 23.211 29.885 23.211C30.332 23.211 30.692 23.573 30.692 24.019V31.618C30.693 32.064 30.331 32.425 29.885 32.425Z" fill="white"/>
</g>
<defs>
<clipPath id="clip0">
<rect width="38.512" height="43.738" fill="white" transform="translate(21 18)"/>
</clipPath>
</defs>
</svg>
