<svg width="80" height="80" viewBox="0 0 80 80" fill="none" xmlns="http://www.w3.org/2000/svg">
<circle cx="40" cy="40" r="40" fill="#FF6AA0"/>
<g clip-path="url(#clip0)">
<path d="M36.094 55.626H22.049C21.074 55.626 20.281 54.833 20.281 53.858V52.057C20.281 51.082 21.074 50.289 22.049 50.289H36.095C37.07 50.289 37.863 51.082 37.863 52.057V53.858C37.862 54.833 37.069 55.626 36.094 55.626ZM22.049 51.905C21.965 51.905 21.896 51.974 21.896 52.058V53.859C21.896 53.943 21.965 54.012 22.049 54.012H36.095C36.179 54.012 36.248 53.943 36.248 53.859V52.058C36.248 51.974 36.179 51.905 36.095 51.905H22.049Z" fill="white"/>
<path d="M31.951 34.978C31.505 34.978 31.144 34.617 31.144 34.171V29.314C31.144 28.868 31.505 28.506 31.951 28.506C32.397 28.506 32.759 28.867 32.759 29.314V34.171C32.758 34.617 32.397 34.978 31.951 34.978Z" fill="white"/>
<path d="M28.316 34.978C27.87 34.978 27.508 34.617 27.508 34.171V29.314C27.508 28.868 27.869 28.506 28.316 28.506C28.763 28.506 29.123 28.867 29.123 29.314V34.171C29.124 34.617 28.763 34.978 28.316 34.978Z" fill="white"/>
<path d="M24.682 34.978C24.236 34.978 23.874 34.617 23.874 34.171V29.314C23.874 28.868 24.235 28.506 24.682 28.506C25.128 28.506 25.489 28.867 25.489 29.314V34.171C25.49 34.617 25.129 34.978 24.682 34.978Z" fill="white"/>
<path d="M47.139 55.626H18.808C18.361 55.626 18 55.265 18 54.819C18 54.373 18.361 54.011 18.808 54.011H47.139C47.585 54.011 47.947 54.372 47.947 54.819C47.947 55.266 47.585 55.626 47.139 55.626Z" fill="white"/>
<path d="M43.289 37.18C43.088 37.18 42.893 37.105 42.743 36.967C42.567 36.805 42.471 36.573 42.483 36.333C42.484 36.316 42.487 36.281 42.49 36.254V27.768C42.487 27.74 42.484 27.713 42.483 27.686C42.471 27.446 42.567 27.215 42.743 27.052C42.92 26.89 43.158 26.815 43.396 26.846L47.749 27.426C48.683 27.551 49.387 28.361 49.387 29.312V34.706C49.387 35.656 48.683 36.467 47.749 36.592L43.396 37.172C43.36 37.177 43.324 37.18 43.289 37.18ZM44.105 28.571V35.449L47.536 34.992C47.671 34.974 47.772 34.852 47.772 34.707V29.313C47.772 29.168 47.671 29.046 47.536 29.028L44.105 28.571Z" fill="white"/>
<path d="M61.812 34.453H48.579C48.133 34.453 47.771 34.092 47.771 33.646V30.374C47.771 29.928 48.132 29.567 48.579 29.567H61.812C62.258 29.567 62.619 29.928 62.619 30.374V33.646C62.62 34.092 62.258 34.453 61.812 34.453ZM49.387 32.838H61.005V31.181H49.387V32.838Z" fill="white"/>
<path d="M53.301 34.453C52.855 34.453 52.493 34.092 52.493 33.646V30.374C52.493 29.928 52.855 29.567 53.301 29.567C53.747 29.567 54.108 29.928 54.108 30.374V33.646C54.109 34.092 53.747 34.453 53.301 34.453Z" fill="white"/>
<path d="M57.479 34.453C57.033 34.453 56.671 34.092 56.671 33.646V30.374C56.671 29.928 57.032 29.567 57.479 29.567C57.925 29.567 58.286 29.928 58.286 30.374V33.646C58.286 34.092 57.925 34.453 57.479 34.453Z" fill="white"/>
<path d="M38.824 39.02H26.939C26.493 39.02 26.132 38.659 26.132 38.213C26.132 37.767 26.493 37.405 26.939 37.405H38.824C39.27 37.405 39.632 37.766 39.632 38.213C39.631 38.658 39.27 39.02 38.824 39.02Z" fill="white"/>
<path d="M32.453 51.905H23.309C23.078 51.905 22.858 51.806 22.705 51.633C22.552 51.46 22.48 51.23 22.507 51.001L23.744 40.788C23.878 39.685 23.163 38.661 22.082 38.407C20.762 38.096 19.84 36.967 19.84 35.661V27.728C19.841 26.224 21.065 25 22.569 25H41.376C42.88 25 44.104 26.224 44.104 27.728V36.291C44.104 37.795 42.88 39.019 41.376 39.019H39.022L38.641 40.759C38.288 42.368 36.837 43.535 35.19 43.535H35.079L34.704 45.084L33.239 51.282C33.153 51.648 32.827 51.905 32.453 51.905ZM24.22 50.29H31.813L33.658 42.539C33.746 42.177 34.07 41.922 34.443 41.922H35.19C36.084 41.922 36.872 41.288 37.063 40.415L37.584 38.04C37.665 37.669 37.994 37.405 38.373 37.405H41.376C41.99 37.405 42.489 36.906 42.489 36.292V27.728C42.489 27.114 41.989 26.615 41.376 26.615H22.569C21.955 26.615 21.456 27.114 21.456 27.728V35.661C21.456 36.222 21.857 36.694 22.453 36.835C24.336 37.278 25.581 39.062 25.348 40.983L24.22 50.29Z" fill="white"/>
<path d="M34.444 43.537C34.385 43.537 34.326 43.53 34.266 43.517C33.831 43.42 33.557 42.988 33.655 42.552L34.023 40.911C34.12 40.476 34.551 40.201 34.988 40.3C35.423 40.397 35.697 40.829 35.599 41.265L35.231 42.906C35.147 43.281 34.814 43.537 34.444 43.537Z" fill="white"/>
</g>
<defs>
<clipPath id="clip0">
<rect width="44.62" height="30.626" fill="white" transform="translate(18 25)"/>
</clipPath>
</defs>
</svg>
