<svg width="80" height="80" viewBox="0 0 80 80" fill="none" xmlns="http://www.w3.org/2000/svg">
<circle cx="40" cy="40" r="40" fill="#647FF9"/>
<g clip-path="url(#clip0)">
<path d="M24.0723 52.7033H17.9006C17.4029 52.7033 17 52.2993 17 51.8015V42.5038C17 42.0061 17.4029 41.6021 17.9018 41.6021H24.0734C24.5712 41.6021 24.9752 42.005 24.9752 42.5038V51.8015C24.9741 52.2993 24.5701 52.7033 24.0723 52.7033ZM18.8024 50.9009H23.1717V43.4056H18.8024V50.9009Z" fill="white"/>
<path d="M22.8637 58H19.1026C17.9431 58 17 57.0558 17 55.8974V38.4091C17 37.2495 17.9431 36.3065 19.1026 36.3065H22.8637C24.0232 36.3065 24.9663 37.2495 24.9663 38.4091V55.8974C24.9663 57.0558 24.0232 58 22.8637 58ZM19.1026 38.1089C18.9363 38.1089 18.8024 38.2439 18.8024 38.4091V55.8974C18.8024 56.0626 18.9374 56.1976 19.1026 56.1976H22.8637C23.0299 56.1976 23.1639 56.0626 23.1639 55.8974V38.4091C23.1639 38.2439 23.0288 38.1089 22.8637 38.1089H19.1026Z" fill="white"/>
<path d="M62.4405 52.7033H56.2688C55.7711 52.7033 55.3682 52.3004 55.3682 51.8015V42.5038C55.3682 42.0061 55.7711 41.6021 56.2688 41.6021H62.4405C62.9383 41.6021 63.3423 42.005 63.3423 42.5038V51.8015C63.3423 52.2993 62.9383 52.7033 62.4405 52.7033ZM57.1706 50.9009H61.5388V43.4056H57.1706V50.9009Z" fill="white"/>
<path d="M61.2318 58H57.4708C56.3112 58 55.3682 57.0558 55.3682 55.8974V38.4091C55.3682 37.2495 56.3112 36.3065 57.4708 36.3065H61.2318C62.3914 36.3065 63.3345 37.2495 63.3345 38.4091V55.8974C63.3356 57.0558 62.3914 58 61.2318 58ZM57.4719 38.1089C57.3056 38.1089 57.1717 38.2439 57.1717 38.4091V55.8974C57.1717 56.0626 57.3067 56.1976 57.4719 56.1976H61.233C61.3981 56.1976 61.5332 56.0626 61.5332 55.8974V38.4091C61.5332 38.2439 61.3981 38.1089 61.233 38.1089H57.4719Z" fill="white"/>
<path d="M56.27 55.7333H24.0656C23.8212 55.7333 23.5857 55.634 23.4161 55.4566C23.2464 55.2802 23.1561 55.0414 23.165 54.797C23.1661 54.7881 23.1694 54.7244 23.1706 54.7144L23.1717 39.6167C23.1706 39.6066 23.165 39.5162 23.165 39.5062C23.1561 39.2618 23.2464 39.0241 23.4172 38.8477C23.5868 38.6714 23.8212 38.5721 24.0667 38.5721H32.9716V37.8042C32.9716 35.8925 34.5273 34.3367 36.4391 34.3367H43.8987C45.8105 34.3367 47.3662 35.8925 47.3662 37.8042V38.5721H56.2711C56.5155 38.5721 56.7498 38.6714 56.9206 38.8477C57.0902 39.0241 57.1806 39.2618 57.1728 39.5062C57.1728 39.5162 57.1684 39.5843 57.1684 39.5943C57.1639 39.6167 57.1639 54.6954 57.1639 54.6954C57.1639 54.7044 57.1695 54.7881 57.1706 54.797C57.1795 55.0414 57.0891 55.2802 56.9195 55.4566C56.7487 55.634 56.5144 55.7333 56.27 55.7333ZM24.9741 53.9309H55.3615V40.3745H46.4633C45.9656 40.3745 45.5616 39.9716 45.5616 39.4727V37.8031C45.5616 36.8846 44.8138 36.138 43.8965 36.138H36.4369C35.5184 36.138 34.7718 36.8846 34.7718 37.8031V39.4727C34.7718 39.9705 34.3689 40.3745 33.8711 40.3745H24.9741V53.9309Z" fill="white"/>
<path d="M40.1678 31.4328C37.8431 31.4328 35.9514 29.5411 35.9514 27.2164C35.9514 24.8917 37.8431 23 40.1678 23C42.4925 23 44.3842 24.8917 44.3842 27.2164C44.3842 29.5411 42.4925 31.4328 40.1678 31.4328ZM40.1678 24.8024C38.8364 24.8024 37.7538 25.885 37.7538 27.2164C37.7538 28.5478 38.8375 29.6304 40.1678 29.6304C41.4981 29.6304 42.5818 28.5467 42.5818 27.2164C42.5818 25.885 41.4992 24.8024 40.1678 24.8024Z" fill="white"/>
<path d="M51.1607 30.5779C49.307 30.5779 47.8004 29.0701 47.8004 27.2164C47.8004 25.3627 49.3081 23.8549 51.1607 23.8549C53.0145 23.8549 54.5222 25.3627 54.5222 27.2164C54.5222 29.0701 53.0134 30.5779 51.1607 30.5779ZM51.1607 25.6584C50.3014 25.6584 49.6028 26.357 49.6028 27.2164C49.6028 28.0757 50.3014 28.7744 51.1607 28.7744C52.0201 28.7744 52.7187 28.0757 52.7187 27.2164C52.7187 26.357 52.0201 25.6584 51.1607 25.6584Z" fill="white"/>
<path d="M42.574 36.1391H37.7616C37.2639 36.1391 36.8599 35.7362 36.8599 35.2384V29.4853C36.8599 29.1159 37.0853 28.7844 37.4279 28.6483C37.7705 28.5121 38.1634 28.5992 38.4167 28.867C38.881 29.3592 39.5026 29.6304 40.1678 29.6304C40.8318 29.6304 41.4535 29.3592 41.9177 28.867C42.1711 28.598 42.5628 28.511 42.9065 28.6483C43.2503 28.7844 43.4757 29.117 43.4757 29.4853V35.2373C43.4746 35.7351 43.0717 36.1391 42.574 36.1391ZM38.6623 34.3356H41.6722V31.1549C40.7247 31.5198 39.6098 31.5198 38.6623 31.1549V34.3356Z" fill="white"/>
<path d="M48.701 28.117H43.4824C42.9847 28.117 42.5807 27.7141 42.5807 27.2164C42.5807 26.7186 42.9835 26.3146 43.4824 26.3146H48.701C49.1988 26.3146 49.6016 26.7175 49.6016 27.2164C49.6016 27.7153 49.1988 28.117 48.701 28.117Z" fill="white"/>
<path d="M29.1748 30.5779C27.3211 30.5779 25.8133 29.0701 25.8133 27.2164C25.8133 25.3627 27.3211 23.8549 29.1748 23.8549C31.0286 23.8549 32.5352 25.3627 32.5352 27.2164C32.5352 29.0701 31.0275 30.5779 29.1748 30.5779ZM29.1748 25.6584C28.3155 25.6584 27.6169 26.357 27.6169 27.2164C27.6169 28.0757 28.3166 28.7744 29.1748 28.7744C30.0342 28.7744 30.7328 28.0757 30.7328 27.2164C30.7328 26.357 30.0342 25.6584 29.1748 25.6584Z" fill="white"/>
<path d="M36.852 28.117H31.6346C31.1368 28.117 30.7328 27.7141 30.7328 27.2164C30.7328 26.7186 31.1357 26.3146 31.6346 26.3146H36.852C37.3498 26.3146 37.7538 26.7175 37.7538 27.2164C37.7538 27.7153 37.3498 28.117 36.852 28.117Z" fill="white"/>
<path d="M33.8711 44.4803C33.3734 44.4803 32.9694 44.0775 32.9694 43.5797V39.4727C32.9694 38.9749 33.3722 38.5721 33.8711 38.5721C34.37 38.5721 34.7718 38.9749 34.7718 39.4727V43.5786C34.7729 44.0763 34.3689 44.4803 33.8711 44.4803Z" fill="white"/>
</g>
<defs>
<clipPath id="clip0">
<rect width="46.3423" height="35" fill="white" transform="translate(17 23)"/>
</clipPath>
</defs>
</svg>
