<svg width="80" height="80" viewBox="0 0 80 80" fill="none" xmlns="http://www.w3.org/2000/svg">
<circle cx="40" cy="40" r="40" fill="#8678FE"/>
<g clip-path="url(#clip0)">
<path d="M53.395 31.082H27.284C26.121 31.082 25.175 30.136 25.175 28.973C25.175 27.81 26.121 26.864 27.284 26.864H53.395C54.558 26.864 55.504 27.81 55.504 28.973C55.504 30.136 54.558 31.082 53.395 31.082ZM27.284 28.479C27.012 28.479 26.791 28.7 26.791 28.973C26.791 29.245 27.012 29.466 27.284 29.466H53.395C53.667 29.466 53.889 29.245 53.889 28.973C53.889 28.701 53.668 28.479 53.395 28.479H27.284Z" fill="white"/>
<path d="M53.462 28.486C53.408 28.484 53.381 28.482 53.356 28.479H27.322C27.297 28.482 27.269 28.484 27.254 28.485C27.035 28.497 26.819 28.415 26.659 28.262C26.499 28.109 26.409 27.898 26.409 27.678V22.961C26.409 21.328 27.737 20 29.37 20H51.308C52.941 20 54.269 21.328 54.269 22.961V27.679C54.269 27.9 54.179 28.111 54.019 28.263C53.869 28.406 53.669 28.486 53.462 28.486ZM28.024 26.864H52.654V22.961C52.654 22.219 52.05 21.615 51.308 21.615H29.37C28.628 21.615 28.024 22.219 28.024 22.961V26.864Z" fill="white"/>
<path d="M51.309 60.377H29.37C27.737 60.377 26.409 59.049 26.409 57.416V30.267C26.409 30.045 26.501 29.832 26.662 29.68C26.824 29.527 27.039 29.449 27.263 29.461C27.277 29.462 27.301 29.464 27.323 29.466H53.358C53.38 29.464 53.404 29.461 53.416 29.461C53.64 29.452 53.855 29.527 54.017 29.68C54.179 29.833 54.27 30.045 54.27 30.267V57.416C54.27 59.049 52.941 60.377 51.309 60.377ZM28.024 31.082V57.417C28.024 58.159 28.628 58.763 29.37 58.763H51.308C52.05 58.763 52.654 58.159 52.654 57.417V31.082H28.024Z" fill="white"/>
<path d="M40.34 53.513C34.71 53.513 30.13 48.933 30.13 43.303C30.13 37.673 34.71 33.093 40.34 33.093C45.97 33.093 50.55 37.673 50.55 43.303C50.549 48.933 45.969 53.513 40.34 53.513ZM40.34 34.709C35.601 34.709 31.745 38.565 31.745 43.304C31.745 48.043 35.601 51.899 40.34 51.899C45.079 51.899 48.935 48.044 48.935 43.304C48.934 38.564 45.079 34.709 40.34 34.709Z" fill="white"/>
<path d="M40.34 50.156C36.561 50.156 33.487 47.082 33.487 43.303C33.487 39.524 36.561 36.45 40.34 36.45C42.706 36.45 44.873 37.646 46.138 39.648C46.376 40.025 46.264 40.524 45.886 40.762C45.509 41.001 45.011 40.888 44.772 40.51C43.805 38.979 42.148 38.065 40.34 38.065C37.452 38.065 35.102 40.415 35.102 43.303C35.102 46.191 37.452 48.541 40.34 48.541C42.148 48.541 43.805 47.627 44.772 46.096C45.01 45.719 45.509 45.607 45.886 45.845C46.263 46.083 46.375 46.582 46.137 46.959C44.872 48.961 42.705 50.156 40.34 50.156Z" fill="white"/>
<path d="M45.449 47.332H45.332C43.111 47.332 41.304 45.525 41.304 43.304C41.304 41.083 43.111 39.276 45.332 39.276H45.449C45.895 39.276 46.257 39.637 46.257 40.084C46.257 40.531 45.896 40.892 45.449 40.892H45.332C44.001 40.892 42.919 41.975 42.919 43.305C42.919 44.636 44.001 45.718 45.332 45.718H45.449C45.895 45.718 46.257 46.079 46.257 46.526C46.257 46.973 45.895 47.332 45.449 47.332Z" fill="white"/>
<path d="M39.942 45.709C39.198 45.709 38.409 45.592 37.731 45.235C36.484 44.579 34.741 45.26 34.724 45.268C34.311 45.438 33.84 45.24 33.67 44.827C33.501 44.414 33.698 43.942 34.111 43.773C34.21 43.732 36.556 42.79 38.483 43.805C39.554 44.37 41.458 43.957 42.101 43.751C42.526 43.615 42.98 43.848 43.117 44.272C43.254 44.696 43.022 45.15 42.598 45.288C42.406 45.351 41.243 45.709 39.942 45.709Z" fill="white"/>
<path d="M53.462 56.407H27.217C26.771 56.407 26.409 56.046 26.409 55.599C26.409 55.153 26.771 54.792 27.217 54.792H53.462C53.908 54.792 54.27 55.153 54.27 55.599C54.27 56.046 53.908 56.407 53.462 56.407Z" fill="white"/>
<path d="M31.109 25.656C30.663 25.656 30.301 25.294 30.301 24.848V23.637C30.301 23.191 30.662 22.83 31.109 22.83C31.555 22.83 31.917 23.191 31.917 23.637V24.848C31.917 25.295 31.555 25.656 31.109 25.656Z" fill="white"/>
<path d="M34.294 25.656C33.848 25.656 33.486 25.294 33.486 24.848V23.637C33.486 23.191 33.847 22.83 34.294 22.83C34.741 22.83 35.102 23.191 35.102 23.637V24.848C35.102 25.295 34.74 25.656 34.294 25.656Z" fill="white"/>
<path d="M37.479 25.656C37.033 25.656 36.672 25.294 36.672 24.848V23.637C36.672 23.191 37.033 22.83 37.479 22.83C37.925 22.83 38.287 23.191 38.287 23.637V24.848C38.287 25.295 37.925 25.656 37.479 25.656Z" fill="white"/>
<path d="M40.665 25.656C40.219 25.656 39.857 25.294 39.857 24.848V23.637C39.857 23.191 40.218 22.83 40.665 22.83C41.111 22.83 41.472 23.191 41.472 23.637V24.848C41.472 25.295 41.111 25.656 40.665 25.656Z" fill="white"/>
<path d="M55.941 60.377H23.808C23.361 60.377 23 60.016 23 59.57C23 59.124 23.361 58.762 23.808 58.762H55.942C56.388 58.762 56.749 59.123 56.749 59.57C56.749 60.016 56.387 60.377 55.941 60.377Z" fill="white"/>
</g>
<defs>
<clipPath id="clip0">
<rect width="33.749" height="40.377" fill="white" transform="translate(23 20)"/>
</clipPath>
</defs>
</svg>
