<svg width="80" height="80" viewBox="0 0 80 80" fill="none" xmlns="http://www.w3.org/2000/svg">
<circle cx="40" cy="40" r="40" fill="#73C982"/>
<g clip-path="url(#clip0)">
<path d="M56.098 59.059H23.961C22.328 59.059 21 57.731 21 56.098V23.961C21 22.328 22.328 21 23.961 21H56.098C57.731 21 59.059 22.328 59.059 23.961V56.098C59.059 57.731 57.731 59.059 56.098 59.059ZM23.961 22.615C23.219 22.615 22.615 23.219 22.615 23.961V56.098C22.615 56.84 23.219 57.444 23.961 57.444H56.098C56.84 57.444 57.444 56.84 57.444 56.098V23.961C57.444 23.219 56.84 22.615 56.098 22.615H23.961V22.615Z" fill="white"/>
<path d="M33.53 43.556C31.586 43.556 30.004 41.974 30.004 40.03C30.004 38.086 31.586 36.504 33.53 36.504C35.474 36.504 37.056 38.086 37.056 40.03C37.056 41.974 35.474 43.556 33.53 43.556ZM33.53 38.119C32.476 38.119 31.619 38.976 31.619 40.03C31.619 41.084 32.476 41.941 33.53 41.941C34.584 41.941 35.441 41.084 35.441 40.03C35.441 38.976 34.584 38.119 33.53 38.119Z" fill="white"/>
<path d="M46.529 43.556C44.585 43.556 43.003 41.974 43.003 40.03C43.003 38.086 44.585 36.504 46.529 36.504C48.473 36.504 50.055 38.086 50.055 40.03C50.056 41.974 48.473 43.556 46.529 43.556ZM46.529 38.119C45.475 38.119 44.618 38.976 44.618 40.03C44.618 41.084 45.475 41.941 46.529 41.941C47.583 41.941 48.44 41.084 48.44 40.03C48.44 38.976 47.583 38.119 46.529 38.119Z" fill="white"/>
<path d="M40.03 33.112C38.36 33.112 37.002 31.753 37.002 30.084V21.808C37.001 21.361 37.363 21 37.809 21H42.25C42.696 21 43.058 21.361 43.058 21.808V30.084C43.058 31.753 41.699 33.112 40.03 33.112ZM38.616 22.615V30.083C38.616 30.862 39.25 31.496 40.029 31.496C40.808 31.496 41.442 30.862 41.442 30.083V22.615H38.616Z" fill="white"/>
<path d="M42.25 59.059H37.809C37.363 59.059 37.001 58.698 37.001 58.252V49.976C37.001 48.306 38.36 46.948 40.029 46.948C41.699 46.948 43.057 48.307 43.057 49.976V58.252C43.058 58.698 42.697 59.059 42.25 59.059ZM38.616 57.444H41.442V49.976C41.442 49.197 40.808 48.563 40.029 48.563C39.25 48.563 38.616 49.197 38.616 49.976V57.444Z" fill="white"/>
<path d="M42.25 55.058C42.059 55.058 41.872 54.99 41.725 54.864C41.546 54.71 41.443 54.487 41.443 54.251V49.976C41.443 49.197 40.809 48.563 40.03 48.563C39.251 48.563 38.617 49.197 38.617 49.976V54.251C38.617 54.487 38.514 54.711 38.335 54.864C38.157 55.017 37.92 55.086 37.686 55.049C30.236 53.895 24.83 47.579 24.83 40.03C24.83 32.481 30.237 26.164 37.686 25.011C37.918 24.975 38.156 25.042 38.335 25.196C38.514 25.349 38.617 25.573 38.617 25.809V30.084C38.617 30.863 39.251 31.497 40.03 31.497C40.809 31.497 41.443 30.863 41.443 30.084V25.808C41.443 25.572 41.546 25.348 41.725 25.195C41.904 25.042 42.14 24.975 42.374 25.01C49.823 26.164 55.23 32.48 55.23 40.029C55.23 47.578 49.823 53.895 42.374 55.048C42.333 55.055 42.292 55.058 42.25 55.058ZM40.03 46.948C41.7 46.948 43.058 48.307 43.058 49.976V53.275C49.138 51.884 53.614 46.35 53.614 40.03C53.614 33.71 49.138 28.177 43.058 26.785V30.084C43.058 31.754 41.699 33.112 40.03 33.112C38.36 33.112 37.002 31.753 37.002 30.084V26.785C30.921 28.176 26.445 33.71 26.445 40.03C26.445 46.35 30.921 51.883 37.001 53.275V49.976C37.001 48.306 38.36 46.948 40.03 46.948Z" fill="white"/>
</g>
<defs>
<clipPath id="clip0">
<rect width="38.059" height="38.059" fill="white" transform="translate(21 21)"/>
</clipPath>
</defs>
</svg>
